<svg xmlns="http://www.w3.org/2000/svg" viewBox="0 0 574.59 245.27"><defs><style>.cls-1{fill:#fff;stroke:#de2c82;stroke-miterlimit:10;stroke-width:0.5px;}.cls-2{fill:#de2c82;}.cls-3{fill:#c9166b;}.cls-4{fill:#d41971;}.cls-5,.cls-6{fill:#9c104f;}.cls-6{fill-opacity:0.7;}.cls-7{fill:#de2c83;}</style></defs><title>okieoky</title><g id="Layer_2" data-name="Layer 2"><path class="cls-1" d="M500.3,86.5c8.89,3.25,61.46,32.82,64.16,62.7l2.38,2.06c10-12.43,68.09-12.56,89.91-5.1,9.27,15.87,8.31,36.91,6.76,46.28-7.73,14.34-27,61.58-27,66.93-3.48,2.68-65,11.17-81.81-58.82,0,0-14.46,3.66-20.65-2.84-60.65,35.76-94.76-13.49-94.76-13.49s23.56-53.16,25.3-62.15C465.71,112.31,477.7,95.87,500.3,86.5Z" transform="translate(-90.17 -86.23)"/><path class="cls-2" d="M502.68,93.69c8.46,3,55.55,33.62,58.13,61.64l5.33,3.09c9.57-11.66,64.75-15.78,85.53-8.79,8.83,14.88,7.91,34.61,6.44,43.4-7.36,13.45-25.75,57.74-25.75,62.76-3.31,2.51-58.68,7.35-74.68-58.28,0,0-17.47,2.15-23.36-3.95-57.76,33.53-89.77-8.25-89.77-8.25S467,135.47,468.65,127C469.73,117.9,481.15,102.48,502.68,93.69Z" transform="translate(-90.17 -86.23)"/><path class="cls-3" d="M571.08,168.29s30.12,3.17,78.61,26.84c.71.35-19.32,27.85-20.65,55C615.41,247.12,554.67,232.29,571.08,168.29Z" transform="translate(-90.17 -86.23)"/><path class="cls-4" d="M503.82,101.92s-21,13.37-22.67,20.12-8.7,22.06-8.7,22.06-10.55,31.1-14.93,37.74c.59.19,4.31,1.66,23.15,11.59,19.66,3.92,43.9-6.91,43.9-6.91s-17.76-35.7,20.75-47.11C538.53,123.79,503.82,101.92,503.82,101.92Z" transform="translate(-90.17 -86.23)"/><path class="cls-4" d="M545.31,153.91s9.64.67,13.37,4.84A37,37,0,0,0,553,190.9H539.64C536.74,185.12,523.26,165.08,545.31,153.91Z" transform="translate(-90.17 -86.23)"/><path class="cls-5" d="M571.08,168.29c35.68.82,78.95,27.34,78.95,27.34S588.13,170.73,571.08,168.29Z" transform="translate(-90.17 -86.23)"/><path class="cls-5" d="M579.5,159.54s29.15-4.72,55.11,0C599.52,164.26,579.5,159.54,579.5,159.54Z" transform="translate(-90.17 -86.23)"/><path class="cls-5" d="M475.42,137.39c19.69,12.86,48.08,16.53,48.08,16.53s-32.06-10-46.62-20C476.38,135.14,475.89,136.3,475.42,137.39Z" transform="translate(-90.17 -86.23)"/><path class="cls-6" d="M471.62,129.44c.58.64-2.9,0-1.1,4.44a59.41,59.41,0,0,0,4.9,3.51c.47-1.09,1-2.25,1.45-3.45A26.17,26.17,0,0,1,471.62,129.44Z" transform="translate(-90.17 -86.23)"/></g><g id="Layer_4" data-name="Layer 4"><path class="cls-2" d="M167.17,215.83c0-33.5-15.17-53.8-33.17-53.5-3.68.06-13.67,1.67-15.67,5.67-2.83-2.17-9.17,0-9.17,0s-19,10.33-19,47.5c0,57.17,38.17,55.33,38.17,55.33S168,268.83,167.17,215.83ZM128,260c-29.67,0-27.83-43.41-27.83-43.41s.83-25.75,7.83-32.75c4.5-2.67-5.33,22.5,10.83,22.5S131.5,186.5,131.5,186.5s-2.83-6.33-10,.17c0,0,1.17,8.17-1.33,8.17s-2.5,0-1.17-11c5.18-8.8,9.67-10.33,14.33-10.33,6,0,24.33,6,24.33,44.09C157.67,218.5,157.67,260,128,260Z" transform="translate(-90.17 -86.23)"/><ellipse class="cls-2" cx="138.65" cy="134.15" rx="6.31" ry="6.75"/><path class="cls-2" d="M335.33,153.5c-6.2,0-39,4.67-39,56.67,0,17.83,4.67,26,4.67,26-12,1-11.08,11.58-18.17,17.67s-7.75,7.42-16,8c-7,0-8.33-5.67-8.33-5.67s9.67,2,17.25-1.5,7.08-7.33,7.08-7.33,1.17-7,0-10.17c-1.58-5-14-8.33-17-8.33s-19,1.17-19.67,20.17c-5.83,13-12.33,11.83-12.33,11.83l-.33-28.33s-1.33-4.33-5-3-5.67,9.83-5.67,9.83-7.67,16.33-12.5,21C208,262,206,259.5,206,259.5l.17-13.17s3.17-2.33.83-9-10.5-8.17-10.5-8.17,14.63-20.67,9.17-45.67c0,0-2.17-17.17-15.5-17.17-13.17,0-14.83,37-14.83,37V268s.67,2.84,4.67,2.84,4.47.11,5.17-2.84V253.67c9.15,2.26,13.5.67,13.5.67v9.83s3.17,6.67,8.5,6.67c8.33,0,16.17-11.51,16.17-11.51s1.67,11.51,10.33,11.51c10.33,0,15.33-9,15.33-9s6.83,9,17.33,9a29.79,29.79,0,0,0,23.5-11.67s7.92-11.92,11.33-13.17a4,4,0,0,1,5,1.83s4.5,14.33,26,17.5c9.5-1,8.67-.83,14.17-6.5,3,2.83,5.67,2.33,5.67,2.33s24.17-8.67,24.17-52.17C376.17,153.5,342.33,153.5,335.33,153.5ZM185.07,228.81S184.26,177,191.29,177C201.18,183.26,196.35,210.63,185.07,228.81Zm3.05,13.69c2-5.5,7.13-6.09,10,0C195.5,244.25,188.13,242.5,188.13,242.5Zm85.38-.5c-.37,6.88-11,6.5-17.12,3.75C260.38,238.13,270.13,237.13,273.5,242Zm66.17,8c5.33-9.58.83-18.5,5.5-19.17C348.83,244.83,339.67,250,339.67,250Zm16.5-7.67s4.83-23.67-11.5-23.67c-15.17,1.17-8.17,24-15.5,27.83-6.5,1.67-23-8-23-37s19-45,29.67-45c27.83,0,29.33,43,29.33,43S365.17,236.33,356.17,242.33Z" transform="translate(-90.17 -86.23)"/><path class="cls-2" d="M487.33,238s-8.5,12.33-13.83,14.17v-28.5s-1.17-2.83-5.33-2.83-5.33,4.06-5.33,4.06l-.67,24.28s-1.83,5.33-6.33,5.33c-10.5,0-9.67-6-9.67-6l-.5-25.17s-.33-3-4.83-3-6.09,10.38-6.09,10.38S427.5,248,422.3,252.91c-2.46,1.79-4.66-.88-4.66-.88l.18-13.9s3.4-2.46.9-9.5S407.43,220,407.43,220s13.32-14.51,9.86-48.22c0,0-2.33-18.12-16.67-18.12-14.16,0-15.95,39.07-15.95,39.07V261s.72,3,5,3,4.8.11,5.56-3V245.87c9.84,2.39,14.52.7,14.52.7V257s3.4,7,9.14,7c9,0,17.38-12.15,17.38-12.15,5.72,17.64,22.56,12.81,22.56,12.81s-18,23-14.17,43.83c0,0,.5,23,13.67,23S473,300,473,300c.33-12.67,1.17-33.33,1.17-33.33S489.5,256,493.5,244C495.67,237.83,487.33,238,487.33,238Zm-92.19-18.37S394.26,165,401.82,165C412.46,171.53,407.26,200.44,395.14,219.63Zm5.28,13.46c2.13-5.81,7.66-5.43,10.75,1C407.17,235,400.42,233.08,400.42,233.08Zm57.91,85.42c-4.71,3.17-5.33-28.5,3.33-38C463.5,289,463.67,318.5,458.33,318.5Z" transform="translate(-90.17 -86.23)"/><path class="cls-7" d="M303.83,277.88a29.57,29.57,0,0,1,5.57-.49c3,0,5,.53,6.48,1.72a5,5,0,0,1,2,4.17,5.61,5.61,0,0,1-4,5.19v.07a6.09,6.09,0,0,1,4.87,5.92,6.37,6.37,0,0,1-2,4.73c-1.65,1.51-4.31,2.21-8.17,2.21a35.57,35.57,0,0,1-4.73-.28Zm3,9.67h2.77c3.22,0,5.12-1.68,5.12-4,0-2.77-2.1-3.86-5.19-3.86a13.05,13.05,0,0,0-2.7.21Zm0,11.32a16.25,16.25,0,0,0,2.56.14c3.15,0,6.06-1.16,6.06-4.59,0-3.22-2.77-4.56-6.1-4.56h-2.52Z" transform="translate(-90.17 -86.23)"/><path class="cls-7" d="M340.28,292.57c0,6.27-4.35,9-8.45,9-4.59,0-8.13-3.36-8.13-8.73,0-5.68,3.71-9,8.41-9C337,283.84,340.28,287.38,340.28,292.57Zm-13.46.18c0,3.72,2.14,6.52,5.15,6.52s5.15-2.77,5.15-6.59c0-2.87-1.44-6.52-5.08-6.52S326.83,289.52,326.83,292.74Z" transform="translate(-90.17 -86.23)"/><path class="cls-7" d="M346.25,276.3h3.08v24.89h-3.08Z" transform="translate(-90.17 -86.23)"/><path class="cls-7" d="M356.17,298a8.08,8.08,0,0,0,4.07,1.23c2.24,0,3.29-1.12,3.29-2.52s-.88-2.28-3.15-3.12c-3-1.09-4.49-2.77-4.49-4.8,0-2.73,2.21-5,5.85-5a8.46,8.46,0,0,1,4.17,1.05l-.77,2.24a6.6,6.6,0,0,0-3.47-1c-1.82,0-2.84,1.05-2.84,2.31s1,2,3.22,2.87c2.94,1.12,4.45,2.59,4.45,5.12,0,3-2.31,5.08-6.34,5.08a9.67,9.67,0,0,1-4.77-1.16Z" transform="translate(-90.17 -86.23)"/><path class="cls-7" d="M387.89,292.57c0,6.27-4.35,9-8.45,9-4.59,0-8.13-3.36-8.13-8.73,0-5.68,3.72-9,8.41-9C384.59,283.84,387.89,287.38,387.89,292.57Zm-13.46.18c0,3.72,2.14,6.52,5.15,6.52s5.15-2.77,5.15-6.59c0-2.87-1.44-6.52-5.08-6.52S374.43,289.52,374.43,292.74Z" transform="translate(-90.17 -86.23)"/><path class="cls-7" d="M393.43,298a8.08,8.08,0,0,0,4.07,1.23c2.24,0,3.29-1.12,3.29-2.52s-.88-2.28-3.16-3.12c-3-1.09-4.49-2.77-4.49-4.8,0-2.73,2.21-5,5.85-5a8.46,8.46,0,0,1,4.17,1.05l-.77,2.24a6.6,6.6,0,0,0-3.47-1c-1.82,0-2.84,1.05-2.84,2.31s1,2,3.22,2.87c2.94,1.12,4.45,2.59,4.45,5.12,0,3-2.31,5.08-6.34,5.08a9.67,9.67,0,0,1-4.77-1.16Z" transform="translate(-90.17 -86.23)"/><path class="cls-7" d="M420.42,284.23l3.71,10c.39,1.12.81,2.45,1.09,3.47h.07c.32-1,.67-2.31,1.09-3.54l3.36-10H433l-4.63,12.09c-2.21,5.82-3.72,8.8-5.82,10.62a8.35,8.35,0,0,1-3.79,2l-.77-2.59a8.16,8.16,0,0,0,2.7-1.51,9.35,9.35,0,0,0,2.59-3.43,2.21,2.21,0,0,0,.25-.74,2.68,2.68,0,0,0-.21-.81l-6.27-15.63Z" transform="translate(-90.17 -86.23)"/><path class="cls-7" d="M490.3,293.76l-2.45,7.43h-3.15l8-23.62h3.68l8.06,23.62H501.2l-2.52-7.43Zm7.75-2.38-2.31-6.8c-.53-1.54-.88-2.94-1.23-4.31h-.07c-.35,1.4-.74,2.84-1.19,4.28l-2.31,6.83Z" transform="translate(-90.17 -86.23)"/><path class="cls-7" d="M521.57,300.56a11.36,11.36,0,0,1-4.87,1c-5.12,0-8.45-3.47-8.45-8.66s3.58-9,9.11-9a10.3,10.3,0,0,1,4.28.88l-.7,2.38a7.15,7.15,0,0,0-3.58-.81c-3.89,0-6,2.87-6,6.41,0,3.93,2.52,6.34,5.89,6.34a8.76,8.76,0,0,0,3.79-.84Z" transform="translate(-90.17 -86.23)"/><path class="cls-7" d="M539.13,300.56a11.36,11.36,0,0,1-4.87,1c-5.12,0-8.45-3.47-8.45-8.66s3.58-9,9.11-9a10.3,10.3,0,0,1,4.28.88l-.7,2.38a7.15,7.15,0,0,0-3.58-.81c-3.89,0-6,2.87-6,6.41,0,3.93,2.52,6.34,5.89,6.34a8.76,8.76,0,0,0,3.79-.84Z" transform="translate(-90.17 -86.23)"/><path class="cls-7" d="M546.32,293.27c.07,4.17,2.73,5.89,5.82,5.89a11.15,11.15,0,0,0,4.7-.88l.53,2.21a13.74,13.74,0,0,1-5.64,1.05c-5.22,0-8.34-3.44-8.34-8.55s3-9.15,8-9.15c5.54,0,7,4.87,7,8a11.6,11.6,0,0,1-.11,1.44Zm9-2.21c0-2-.81-5-4.28-5-3.12,0-4.49,2.87-4.73,5Z" transform="translate(-90.17 -86.23)"/><path class="cls-7" d="M563.81,298a8.08,8.08,0,0,0,4.07,1.23c2.24,0,3.29-1.12,3.29-2.52s-.88-2.28-3.15-3.12c-3-1.09-4.49-2.77-4.49-4.8,0-2.73,2.21-5,5.85-5a8.46,8.46,0,0,1,4.17,1.05l-.77,2.24a6.6,6.6,0,0,0-3.47-1c-1.82,0-2.84,1.05-2.84,2.31s1,2,3.22,2.87c2.94,1.12,4.45,2.59,4.45,5.12,0,3-2.31,5.08-6.34,5.08a9.67,9.67,0,0,1-4.77-1.16Z" transform="translate(-90.17 -86.23)"/><path class="cls-7" d="M595.53,292.57c0,6.27-4.35,9-8.45,9-4.59,0-8.13-3.36-8.13-8.73,0-5.68,3.71-9,8.41-9C592.24,283.84,595.53,287.38,595.53,292.57Zm-13.46.18c0,3.72,2.14,6.52,5.15,6.52s5.15-2.77,5.15-6.59c0-2.87-1.44-6.52-5.08-6.52S582.07,289.52,582.07,292.74Z" transform="translate(-90.17 -86.23)"/><path class="cls-7" d="M601.49,289.52c0-2,0-3.72-.14-5.29h2.7l.11,3.33h.14a5.09,5.09,0,0,1,4.7-3.72,3.32,3.32,0,0,1,.88.11v2.91a4.65,4.65,0,0,0-1.05-.1c-2.17,0-3.71,1.65-4.14,4a8.66,8.66,0,0,0-.14,1.44v9h-3Z" transform="translate(-90.17 -86.23)"/><path class="cls-7" d="M618.6,279.46a1.91,1.91,0,0,1-3.82,0,1.88,1.88,0,0,1,1.93-1.93A1.83,1.83,0,0,1,618.6,279.46Zm-3.43,21.73v-17h3.08v17Z" transform="translate(-90.17 -86.23)"/><path class="cls-7" d="M640.79,292.57c0,6.27-4.35,9-8.45,9-4.59,0-8.13-3.36-8.13-8.73,0-5.68,3.71-9,8.41-9C637.49,283.84,640.79,287.38,640.79,292.57Zm-13.46.18c0,3.72,2.14,6.52,5.15,6.52s5.15-2.77,5.15-6.59c0-2.87-1.44-6.52-5.08-6.52S627.33,289.52,627.33,292.74Z" transform="translate(-90.17 -86.23)"/><path class="cls-7" d="M646.33,298a8.08,8.08,0,0,0,4.07,1.23c2.24,0,3.29-1.12,3.29-2.52s-.88-2.28-3.15-3.12c-3-1.09-4.49-2.77-4.49-4.8,0-2.73,2.21-5,5.85-5a8.46,8.46,0,0,1,4.17,1.05l-.77,2.24a6.6,6.6,0,0,0-3.47-1c-1.82,0-2.84,1.05-2.84,2.31s1,2,3.22,2.87c2.94,1.12,4.45,2.59,4.45,5.12,0,3-2.31,5.08-6.34,5.08a9.67,9.67,0,0,1-4.77-1.16Z" transform="translate(-90.17 -86.23)"/></g></svg>