<svg id="Layer_2" data-name="Layer 2" xmlns="http://www.w3.org/2000/svg" viewBox="0 0 42.51 33.93"><defs><style>.cls-1{fill:none;stroke:#fff;stroke-miterlimit:10;stroke-width:0.5px;}.cls-2{fill:#fff;}.cls-3{fill:#e0e0e0;opacity:0.5;}.cls-4,.cls-5{opacity:0.3;}.cls-5{fill-opacity:0.7;}</style></defs><title>oky_logo-wb</title><path class="cls-1" d="M11.61.44c1.66.62,11.46,6.28,12,12l.44.4c1.87-2.38,12.7-2.4,16.77-1,1.73,3,1.55,7.06,1.26,8.86-1.44,2.74-5,11.78-5,12.81C36.43,34,25,35.65,21.82,22.25c0,0-2.7.7-3.85-.54C6.66,28.55.29,19.13.29,19.13S4.69,9,5,7.24,7.39,2.24,11.61.44Z" transform="translate(-0.01 -0.17)"/><path class="cls-2" d="M12.07,1.65c1.58.58,10.36,6.43,10.84,11.8l1,.59c1.78-2.23,12.08-3,16-1.68,1.65,2.85,1.48,6.62,1.2,8.3-1.37,2.57-4.8,11-4.8,12-.62.48-10.95,1.41-13.93-11.15,0,0-3.26.41-4.36-.75C7.24,27.18,1.27,19.18,1.27,19.18S5.46,9.64,5.77,8,8.07,3.33,12.07,1.65Z" transform="translate(-0.01 -0.17)"/><path class="cls-3" d="M24.87,15.93s5.62.61,14.67,5.14c.13.07-3.6,5.33-3.85,10.52C33.14,31,21.81,28.17,24.87,15.93Z" transform="translate(-0.01 -0.17)"/><path class="cls-3" d="M12.33,3.23S8.4,5.79,8.1,7.08A36,36,0,0,1,6.48,11.3a64.28,64.28,0,0,1-2.79,7.22A38.2,38.2,0,0,1,8,20.74c3.67.75,8.19-1.32,8.19-1.32s-3.31-6.83,3.87-9C18.8,7.44,12.33,3.23,12.33,3.23Z" transform="translate(-0.01 -0.17)"/><path class="cls-3" d="M20.07,13.18a4.45,4.45,0,0,1,2.49.93,7.24,7.24,0,0,0-1.06,6.15H19C18.47,19.15,15.95,15.31,20.07,13.18Z" transform="translate(-0.01 -0.17)"/><path class="cls-4" d="M24.87,15.93c6.66.16,14.73,5.23,14.73,5.23S28.07,16.44,24.87,15.93Z" transform="translate(-0.01 -0.17)"/><path class="cls-4" d="M26.45,14.25a34.37,34.37,0,0,1,10.28,0C30.18,15.16,26.45,14.25,26.45,14.25Z" transform="translate(-0.01 -0.17)"/><path class="cls-5" d="M7.31,9.35,7,10a24.61,24.61,0,0,0,9,3.16S10,11.26,7.31,9.35Z" transform="translate(-0.01 -0.17)"/><path class="cls-5" d="M6.32,8.49c.11.12-.54,0-.21.85A11.21,11.21,0,0,0,7,10l.29-.66A5.05,5.05,0,0,1,6.32,8.49Z" transform="translate(-0.01 -0.17)"/></svg>