<svg id="Layer_4" data-name="Layer 4" xmlns="http://www.w3.org/2000/svg" viewBox="0 0 403.7 177.99"><defs><style>.cls-1{fill:#fff;}</style></defs><title>Oky_text-white</title><path class="cls-1" d="M77,62.33c0-33.5-15.17-53.8-33.17-53.5-3.68.06-13.67,1.67-15.67,5.67-2.83-2.17-9.17,0-9.17,0S0,24.83,0,62c0,57.17,38.17,55.33,38.17,55.33S77.83,115.33,77,62.33ZM37.83,106.5C8.16,106.5,10,63.09,10,63.09s.83-25.75,7.83-32.75c4.5-2.67-5.33,22.5,10.83,22.5S41.33,33,41.33,33s-2.83-6.33-10,.17c0,0,1.17,8.17-1.33,8.17s-2.5,0-1.17-11C34,21.54,38.5,20,43.16,20c6,0,24.33,6,24.33,44.09C67.5,65,67.5,106.5,37.83,106.5Z" transform="translate(0.01)"/><ellipse class="cls-1" cx="138.66" cy="66.88" rx="6.31" ry="6.75"/><path class="cls-1" d="M245.16,0c-6.2,0-39,4.67-39,56.67,0,17.83,4.67,26,4.67,26-12,1-11.08,11.58-18.17,17.67s-7.75,7.42-16,8c-7,0-8.33-5.67-8.33-5.67s9.67,2,17.25-1.5,7.08-7.33,7.08-7.33,1.17-7,0-10.17c-1.58-5-14-8.33-17-8.33s-19,1.17-19.67,20.17c-5.83,13-12.33,11.83-12.33,11.83L143.33,79s-1.33-4.33-5-3-5.67,9.83-5.67,9.83-7.67,16.33-12.5,21c-2.33,1.66-4.33-.84-4.33-.84L116,92.83s3.17-2.33.83-9-10.5-8.17-10.5-8.17S121,55,115.5,30c0,0-2.17-17.17-15.5-17.17-13.17,0-14.83,37-14.83,37V114.5s.67,2.84,4.67,2.84,4.47.11,5.17-2.84V100.17c9.15,2.26,13.5.67,13.5.67v9.83s3.17,6.67,8.5,6.67c8.33,0,16.17-11.51,16.17-11.51s1.67,11.51,10.33,11.51c10.33,0,15.33-9,15.33-9s6.83,9,17.33,9a29.79,29.79,0,0,0,23.5-11.67S207.59,93.75,211,92.5a4,4,0,0,1,5,1.83s4.5,14.33,26,17.5c9.5-1,8.67-.83,14.17-6.5,3,2.83,5.67,2.33,5.67,2.33S286,99,286,55.49C286,0,252.16,0,245.16,0ZM94.9,75.31s-.81-51.81,6.22-51.81C111,29.76,106.18,57.13,94.9,75.31ZM98,89c2-5.5,7.13-6.09,10,0-2.62,1.75-10,0-10,0Zm85.38-.5c-.37,6.88-11,6.5-17.12,3.75C170.21,84.63,180,83.63,183.33,88.5Zm66.17,8c5.33-9.58.83-18.5,5.5-19.17,3.66,14-5.5,19.17-5.5,19.17ZM266,88.83s4.83-23.67-11.5-23.67c-15.17,1.17-8.17,24-15.5,27.83-6.5,1.67-23-8-23-37s19-45,29.67-45C273.5,11,275,54,275,54s0,28.84-9,34.84Z" transform="translate(0.01)"/><path class="cls-1" d="M397.16,84.5s-8.5,12.33-13.83,14.17V70.17s-1.17-2.83-5.33-2.83-5.33,4.06-5.33,4.06L372,95.68s-1.83,5.33-6.33,5.33c-10.5,0-9.67-6-9.67-6l-.5-25.17s-.33-3-4.83-3-6.09,10.38-6.09,10.38-7.25,17.28-12.45,22.19c-2.46,1.79-4.66-.88-4.66-.88l.18-13.9s3.4-2.46.9-9.5-11.29-8.63-11.29-8.63S330.58,52,327.12,18.28c0,0-2.33-18.12-16.67-18.12-14.16,0-16,39.07-16,39.07V107.5s.72,3,5,3,4.8.11,5.56-3V92.37c9.84,2.39,14.52.7,14.52.7V103.5s3.4,7,9.14,7c9,0,17.38-12.15,17.38-12.15,5.72,17.64,22.56,12.81,22.56,12.81s-18,23-14.17,43.83c0,0,.5,23,13.67,23s14.67-31.49,14.67-31.49c.33-12.67,1.17-33.33,1.17-33.33s15.33-10.67,19.33-22.67C405.5,84.33,397.16,84.5,397.16,84.5ZM305,66.13s-.88-54.63,6.68-54.63C322.29,18,317.09,46.94,305,66.13Zm5.28,13.46c2.13-5.81,7.66-5.43,10.75,1-4,.91-10.75-1-10.75-1ZM368.16,165c-4.71,3.17-5.33-28.5,3.33-38,1.84,8.49,2,38-3.33,38Z" transform="translate(0.01)"/></svg>