<svg id="Layer_2" data-name="Layer 2" xmlns="http://www.w3.org/2000/svg" viewBox="0 0 42.56 33.94"><defs><style>.cls-1{fill:#fff;stroke:#de2c82;stroke-miterlimit:10;stroke-width:0.5px;}.cls-2{fill:#de2c82;}.cls-3{fill:#c9166b;}.cls-4{fill:#d41971;}.cls-5,.cls-6{fill:#9c104f;}.cls-6{fill-opacity:0.7;}</style></defs><title>oky_logo</title><path class="cls-1" d="M113.6,26.83c1.66.62,11.46,6.28,12,12l.44.4c1.87-2.38,12.7-2.4,16.77-1,1.73,3,1.55,7.06,1.26,8.86-1.44,2.74-5,11.78-5,12.81-.65.51-12.13,2.14-15.26-11.26,0,0-2.7.7-3.85-.54-11.31,6.84-17.68-2.58-17.68-2.58s4.4-10.17,4.72-11.89S109.38,28.63,113.6,26.83Z" transform="translate(-101.93 -26.56)"/><path class="cls-2" d="M114,28.21c1.58.58,10.36,6.43,10.84,11.8l1,.59c1.78-2.23,12.08-3,16-1.68,1.65,2.85,1.48,6.62,1.2,8.3-1.37,2.57-4.8,11-4.8,12-.62.48-10.95,1.41-13.93-11.15,0,0-3.26.41-4.36-.75-10.78,6.42-16.75-1.58-16.75-1.58s4.19-9.54,4.5-11.15S110,29.89,114,28.21Z" transform="translate(-101.93 -26.56)"/><path class="cls-3" d="M126.8,42.49s5.62.61,14.67,5.14c.13.07-3.6,5.33-3.85,10.52C135.07,57.57,123.74,54.73,126.8,42.49Z" transform="translate(-101.93 -26.56)"/><path class="cls-4" d="M114.26,29.79s-3.93,2.56-4.23,3.85a36,36,0,0,1-1.62,4.22,64.28,64.28,0,0,1-2.79,7.22c.11,0,.8.32,4.32,2.22,3.67.75,8.19-1.32,8.19-1.32s-3.31-6.83,3.87-9C120.73,34,114.26,29.79,114.26,29.79Z" transform="translate(-101.93 -26.56)"/><path class="cls-4" d="M122,39.74a4.45,4.45,0,0,1,2.49.93,7.24,7.24,0,0,0-1.06,6.15h-2.5C120.4,45.71,117.88,41.87,122,39.74Z" transform="translate(-101.93 -26.56)"/><path class="cls-5" d="M126.8,42.49c6.66.16,14.73,5.23,14.73,5.23S130,43,126.8,42.49Z" transform="translate(-101.93 -26.56)"/><path class="cls-5" d="M128.38,40.81a34.37,34.37,0,0,1,10.28,0C132.11,41.72,128.38,40.81,128.38,40.81Z" transform="translate(-101.93 -26.56)"/><path class="cls-5" d="M109,36.57a24.57,24.57,0,0,0,9,3.16s-6-1.91-8.7-3.82Z" transform="translate(-101.93 -26.56)"/><path class="cls-6" d="M108.25,35.05c.11.12-.54,0-.21.85a11.09,11.09,0,0,0,.91.67l.27-.66A4.92,4.92,0,0,1,108.25,35.05Z" transform="translate(-101.93 -26.56)"/></svg>