<svg id="Layer_2" data-name="Layer 2" xmlns="http://www.w3.org/2000/svg" viewBox="0 0 384.07 344.81"><title>product</title><polygon points="219.57 65.5 294.57 0 309.57 80.5 384.07 106.5 311.57 169.5 295.07 91.5 219.57 65.5"/><path d="M452,401.07a158.91,158.91,0,0,1-50.11,149.18l16.75,18.56a185.54,185.54,0,0,0,53.9-183Z" transform="translate(-113.93 -224)"/><path d="M173,568.1l17.51-17.91A158.74,158.74,0,0,1,296.25,273q8,0,15.79.78l21.84-21.37a181.38,181.38,0,0,0-37.67-3.94c-100.67,0-182.28,82.38-182.28,184A184.29,184.29,0,0,0,173,568.1Z" transform="translate(-113.93 -224)"/></svg>